<?xml version="1.0" standalone="no"?>
<!DOCTYPE svg PUBLIC "-//W3C//DTD SVG 1.1//EN" "http://www.w3.org/Graphics/SVG/1.1/DTD/svg11.dtd">
<svg width="100%" height="100%" viewBox="0 0 900 600" version="1.1" xmlns="http://www.w3.org/2000/svg" xmlns:xlink="http://www.w3.org/1999/xlink" xml:space="preserve" style="fill-rule:evenodd;clip-rule:evenodd;stroke-linecap:round;stroke-linejoin:round;stroke-miterlimit:1.41421;">
    <g transform="matrix(1,0,0,1,50,0)">
        <path d="M800,400L400,400L0,400C0,400 131.754,202.369 181.387,127.92C185.536,121.697 192.52,117.958 200,117.958C207.48,117.958 214.464,121.697 218.613,127.92C268.246,202.369 400,400 400,400C400,400 531.597,202.604 581.298,128.053C585.467,121.8 592.485,118.044 600,118.044C607.515,118.044 614.533,121.8 618.702,128.053C668.403,202.604 800,400 800,400Z" style="fill:url(#_Linear1);stroke-width:8px;stroke:#428bca;"/>
        <path d="M120,220C174.757,243.411 226.659,188.671 280,220" style="fill:url(#_Linear2);stroke-width:8px;stroke:#428bca;"/>
        <g transform="matrix(1,0,0,1,400,1.99097)">
            <path d="M120,220C174.757,243.411 226.659,188.671 280,220" style="fill:url(#_Linear3);stroke-width:8px;stroke:#428bca;"/>
        </g>
        <g id="Layer1" transform="matrix(1,-0,-0,1,-50,0)">
            <use xlink:href="#_Image4" x="46" y="122" width="808px" height="478px"/>
        </g>
    </g>
    <defs>
        <linearGradient id="_Linear1" x1="0" y1="0" x2="1" y2="0" gradientUnits="userSpaceOnUse" gradientTransform="matrix(1.46958e-14,-240,240,1.46958e-14,200,400)"><stop offset="0%" style="stop-color:#428bca;stop-opacity:1"/><stop offset="100%" style="stop-color:#428bca;stop-opacity:0"/></linearGradient>
        <linearGradient id="_Linear2" x1="0" y1="0" x2="1" y2="0" gradientUnits="userSpaceOnUse" gradientTransform="matrix(1.46958e-14,-240,240,1.46958e-14,200,400)"><stop offset="0%" style="stop-color:#428bca;stop-opacity:1"/><stop offset="100%" style="stop-color:#428bca;stop-opacity:0"/></linearGradient>
        <linearGradient id="_Linear3" x1="0" y1="0" x2="1" y2="0" gradientUnits="userSpaceOnUse" gradientTransform="matrix(1.46958e-14,-240,240,1.46958e-14,-200,398.009)"><stop offset="0%" style="stop-color:#428bca;stop-opacity:1"/><stop offset="100%" style="stop-color:#428bca;stop-opacity:0"/></linearGradient>
    </defs>
</svg>
