<?xml version="1.0"?><svg width="640" height="480" xmlns="http://www.w3.org/2000/svg">
 <title>Mountain snow navy</title>
 <g>
  <title>Layer 1</title>
  <path d="m407.852997,95.005585l10.800446,-3.908249l13.396332,10.949768c4.180206,1.480438 3.837646,8.255692 12.955414,12.516647c9.117767,4.260971 15.6008,7.791016 19.448242,10.58905c3.84729,2.799042 7.02002,5.162125 9.517914,7.091248c2.496796,1.929993 5.344208,3.970779 8.541138,6.12326c3.196106,2.151382 8.072479,4.676224 14.62851,7.571457c6.55603,2.89624 -2.569946,0.579086 13.717285,6.305023c-4.643433,-1.364624 5.671509,4.074875 13.696716,9.08287c2.284546,6.11113 8.698059,10.630737 11.692688,15.49585c2.016541,5.282074 39.994995,20.754898 43.755432,27.476715c-8.716614,1.273148 -54.791626,-10.625595 -49.324829,-7.886856l-10.988586,-5.970993l-6.976868,0.421402c-28.193695,-3.158875 -13.424866,-2.258087 -21.890991,-5.385147l10.799011,-1.04364c4.459595,-1.359238 17.1745,-6.07196 23.393433,-8.873581c-2.959351,-4.436279 -7.048767,-11.072128 -11.80426,-13.169357c-5.595642,-1.785202 2.482666,0.399353 -8.41571,-2.567627c-10.898315,-2.96698 -9.120789,-2.70311 -12.60199,-3.96019c-3.48114,-1.257095 -7.730469,-2.92366 -12.749084,-4.999817c-5.018585,-2.076157 -9.850159,-4.203293 -14.494904,-6.379379c-4.643738,-2.175964 -7.051941,-3.309647 -7.222656,-3.400742l-0.256104,-0.136154l-0.280334,0.074432c-0.186951,0.049973 -3.302063,-0.45134 -9.344482,-1.502777l-9.064026,-1.578262l-2.477539,-2.105942c-1.651489,-1.402939 -3.384155,-2.887695 -5.198242,-4.452271c-1.813934,-1.565552 -3.993774,-3.100739 -6.539276,-4.607529c-2.54657,-1.505905 -4.872375,-2.559631 -6.978729,-3.158279l-3.159973,-0.899033l0.367767,6.252991l0.368744,6.253128l5.233917,1.779831c3.489227,1.186554 7.87262,2.475967 13.151031,3.868347l6.933411,3.614075l3.693146,0.928162c1.805939,1.635101 3.205322,2.867096 4.198181,3.695007l1.4888,1.242279l4.452545,1.47554c2.968872,0.984756 6.100494,2.130173 9.393707,3.437103c3.294189,1.307022 5.0065,2.181473 5.136627,2.625244l2.196716,6.664734l-26.825287,-7.678101c-16.549561,-1.118729 -26.760529,-2.185699 -30.631653,-3.202789c-3.871246,-1.016083 -5.892212,-1.569687 -6.062927,-1.660797l-0.256104,-0.136139l1.853577,-1.928802c1.234985,-1.285294 2.975067,-2.2276 5.219177,-2.82605l3.366699,-0.898102l-4.452545,-1.475555c-2.968994,-0.983765 -6.645203,-2.120346 -11.029541,-3.409851l-6.574951,-1.93512l-1.856049,-2.783356c-1.236053,-1.855423 -2.688629,-4.199814 -4.35675,-7.033005l-2.502716,-4.249893l-2.475861,0.250687c-1.65097,0.167419 -3.500702,1.275299 -5.549194,3.323593c-2.048645,2.049301 -6.365082,6.477997 -12.949402,13.287109c-6.584442,6.810089 -12.653351,11.501251 -18.206818,14.074402c-5.553589,2.574173 -11.074585,4.865204 -16.563232,6.875107c-5.488708,2.009857 -10.618744,4.061035 -15.39209,6.153183c-4.7724,2.0923 -8.033203,3.644806 -9.781311,4.656662c-1.748199,1.012817 -3.450562,2.423523 -5.109009,4.23082c-1.658508,1.808289 -3.239746,3.732178 -4.742828,5.772766c-1.503906,2.03949 -2.796967,3.033234 -3.878021,2.980331l-7.91922,9.426697l-0.400085,-3.530853c1.338654,-6.719025 6.02005,-9.551575 7.499237,-12.95079c1.47821,-3.399323 3.749817,-6.599686 6.815033,-9.602036c3.064331,-3.003479 5.658417,-5.060486 7.780426,-6.172256c2.12204,-1.112762 5.569672,-2.714249 10.342041,-4.806519c4.773407,-2.092194 8.968872,-3.894516 12.587311,-5.405869c3.61734,-1.510483 6.232025,-2.959152 7.840881,-4.34436c1.609833,-1.385101 3.662201,-4.254318 6.157104,-8.607712l3.742676,-6.529037l-4.293671,-0.493942c-2.863098,-0.329376 -5.689514,-0.190491 -8.47818,0.416779c-2.788544,0.606277 -5.744659,1.872711 -8.867218,3.798477c-3.122528,1.925766 -9.13739,6.943222 -18.046967,15.056122c-8.910431,8.111801 -17.361298,14.599472 -25.353455,19.462952c-7.992096,4.862473 -13.236603,7.899994 -15.732452,9.111694c-2.49585,1.21167 -6.536804,3.246185 -12.122772,6.101501c-5.585907,2.855301 -11.87088,5.487274 -18.855896,7.895737c-6.984055,2.4086 -11.326874,3.908112 -13.025406,4.497849c-1.699524,0.58963 -3.297516,1.084229 -4.793884,1.482834c-1.496475,0.399597 -6.513016,1.464249 -15.051743,3.194717c-8.53772,1.730591 -19.385864,3.05246 -32.543457,3.965683c-13.157578,0.913254 -24.119751,1.651245 -32.886398,2.213013c-8.766632,0.561768 -14.706894,0.98465 -17.820862,1.269638l-4.672272,0.425797l1.780548,-1.293961c1.187408,-0.862961 2.820862,-1.674606 4.902374,-2.434677c2.082504,-0.759995 4.310364,-1.217361 6.684601,-1.37204c2.374344,-0.155655 5.875183,-0.64476 10.502747,-1.469315c4.626434,-0.823639 9.14325,-1.48175 13.551407,-1.974152c4.407181,-0.492569 8.448578,-0.955719 12.124237,-1.389496c3.675659,-0.433746 8.924973,-1.150513 15.74794,-2.150284c6.821976,-0.999893 13.661163,-2.140747 20.515472,-3.421783c6.855438,-1.281906 12.450012,-2.637405 16.783615,-4.065491c4.334717,-1.428955 7.834396,-2.704346 10.501938,-3.824814c2.666641,-1.121582 5.756607,-2.764206 9.268143,-4.930084c3.512573,-2.165741 9.342224,-5.564758 17.48877,-10.195053c8.146698,-4.631287 12.968475,-7.931854 14.463318,-9.900909l2.244293,-2.953857l-1.830902,-0.63945c-1.219299,-0.426132 -2.512878,-1.002762 -3.879639,-1.730713c-1.365631,-0.728851 -4.696564,-2.504166 -9.991791,-5.325836c-5.295105,-2.822647 -9.52124,-4.699951 -12.677094,-5.634735l-4.73288,-1.401093l-3.757233,-0.432236l-3.757202,-0.432236l-9.625015,0.927048c-6.415756,0.61882 -12.144318,2.351486 -17.185654,5.197983c-5.040359,2.846588 -9.032013,6.027237 -11.974228,9.544022c-2.943207,3.516678 -4.650299,5.747192 -5.121429,6.692551c-0.47113,0.945343 -1.31601,1.989639 -2.535873,3.13472c-1.219742,1.144089 -2.353195,2.334351 -3.402359,3.570557c-1.04805,1.235306 -1.933777,1.847092 -2.658157,1.83522c-0.723389,-0.011749 -2.190994,1.711823 -4.401566,5.168839c-2.210693,3.457993 -3.966751,5.326538 -5.267075,5.604752c-1.301422,0.279099 -3.1147,1.070053 -5.439819,2.372849l-3.48819,1.954147l1.095673,-4.799225l1.096771,-4.800095l-4.818222,1.694443c-3.212219,1.13028 -7.273605,2.554443 -12.184235,4.273483c-4.911743,1.719925 -8.122864,2.849335 -9.635452,3.389008c-1.512589,0.539658 -4.818481,0.909271 -9.917603,1.107819l-7.648148,0.297867l1.829239,-1.717209c1.219757,-1.144089 2.47934,-1.855804 3.780762,-2.134888c1.301315,-0.278107 3.293427,-1.048477 5.976181,-2.310135c2.683762,-1.261551 9.651154,-5.100418 20.904022,-11.515396c11.252884,-6.414978 17.350494,-10.568314 18.292755,-12.459c0.942139,-1.889709 1.010803,-3.273941 0.205841,-4.151688l-1.208435,-1.316742l-4.841461,1.905167c-3.228333,1.27037 -7.940765,3.620193 -14.136063,7.047623c-6.195297,3.427414 -17.142487,9.556442 -32.84259,18.386993c-15.700081,8.830536 -25.172028,13.951584 -28.416687,15.363022c-3.24337,1.410538 -6.492134,2.857742 -9.744827,4.339706c-3.251694,1.482086 -5.988403,2.416428 -8.20816,2.803268c-2.219742,0.386856 -7.59903,1.445999 -16.136772,3.176605c-8.538719,1.730469 -13.633438,2.678406 -15.284389,2.84584l-2.475868,0.250687l1.756321,-1.083374c1.171169,-0.721893 4.593575,-2.112854 10.269165,-4.172714c5.675499,-2.058853 12.851303,-5.338242 21.526321,-9.83728c8.676025,-4.498917 13.887093,-7.254425 15.63517,-8.266251c1.748215,-1.012848 6.915443,-4.16597 15.500481,-9.460495c8.58535,-5.294495 13.659172,-8.423126 15.220314,-9.385025c1.561279,-0.96286 10.365891,-6.58847 26.414993,-16.877686c16.049179,-10.290207 25.679718,-15.998962 28.890945,-17.129379l4.818115,-1.693451l8.099579,0.502975l8.100479,0.504089l4.305084,-1.96788c2.870712,-1.311523 6.911606,-3.345016 12.122787,-6.101501c5.212021,-2.755402 10.248535,-4.781067 15.111603,-6.077774c3.635376,-0.127365 4.468704,-5.533524 7.449188,1.317978l4.755508,1.178223l3.025116,2.036072c3.172058,0.793732 8.120483,-0.387466 8.834412,1.263931c0.71286,1.652298 3.118927,1.317093 10.985992,3.911194c5.474457,4.413574 10.936523,8.147278 16.38623,11.201126c5.449707,3.053833 9.211456,5.021637 11.286346,5.902557l3.110443,1.321136l3.390106,-3.464249c2.259766,-2.309891 4.982849,-4.709381 8.170227,-7.198425c3.187317,-2.489029 4.718903,-3.989822 4.596893,-4.50415l-0.183228,-0.769974l1.402954,-0.374115c0.934662,-0.249817 2.751953,-1.075531 5.451935,-2.478149c2.699005,-1.402725 5.654144,-2.669296 8.866211,-3.798599c3.212128,-1.129288 7.777618,-2.210617 13.697357,-3.242813c5.919769,-1.032211 10.827667,-1.931198 14.722626,-2.69606c3.89505,-0.765884 7.558289,-1.879501 10.989807,-3.340912c3.431519,-1.461395 6.252258,-3.134979 8.463501,-5.022644c2.21109,-1.886658 3.788605,-2.990601 4.731262,-3.309952c0.943787,-0.320236 3.768921,-1.244415 8.477509,-2.773315c4.707458,-1.528 7.996887,-2.541702 9.867096,-3.040222c1.870361,-0.499527 4.277039,-0.93634 7.221222,-1.31131c2.943115,-0.375107 4.281738,-8.616104 9.681793,-8.280762l0,0l0,0z" id="path2" stroke-width="2px" stroke="#000066" fill-rule="evenodd" fill="#000000"/>
  <text fill="#000000" stroke="#000000" stroke-width="0" stroke-dasharray="null" stroke-linejoin="null" stroke-linecap="null" opacity="0.5" x="104" y="114" id="svg_1" font-size="24" font-family="serif" text-anchor="middle" xml:space="preserve"/>
  <text fill="#000000" stroke="#000000" stroke-width="0" stroke-dasharray="null" stroke-linejoin="null" stroke-linecap="null" opacity="0.5" x="87" y="105" id="svg_2" font-size="24" font-family="serif" text-anchor="middle" xml:space="preserve"/>
  <text fill="#000000" stroke="#000000" stroke-width="0" stroke-dasharray="null" stroke-linejoin="null" stroke-linecap="null" opacity="0.5" x="74" y="106" id="svg_3" font-size="24" font-family="serif" text-anchor="middle" xml:space="preserve"/>
  <text fill="#000000" stroke="#000000" stroke-width="0" stroke-dasharray="null" stroke-linejoin="null" stroke-linecap="null" opacity="0.5" x="121.5" y="128" id="svg_4" font-size="24" font-family="serif" text-anchor="middle" xml:space="preserve"/>
 </g>
</svg>